<?xml version="1.0" standalone="no"?>
<!DOCTYPE svg PUBLIC "-//W3C//DTD SVG 20010904//EN"
 "http://www.w3.org/TR/2001/REC-SVG-20010904/DTD/svg10.dtd">
<svg version="1.0" xmlns="http://www.w3.org/2000/svg"
 width="454.000000pt" height="452.000000pt" viewBox="0 0 454.000000 452.000000"
 preserveAspectRatio="xMidYMid meet">

<g transform="translate(0.000000,452.000000) scale(0.100000,-0.100000)"
fill="#000000" stroke="none">
<path d="M2502 4490 c-18 -4 -43 -17 -56 -29 -12 -12 -26 -18 -29 -14 -4 3
-20 -6 -37 -22 l-29 -28 -31 26 c-115 97 -378 48 -714 -134 -72 -39 -153 -88
-181 -109 -60 -47 -160 -151 -270 -280 -254 -300 -294 -368 -540 -920 -69
-154 -124 -318 -125 -370 0 -60 27 -180 58 -259 44 -108 159 -257 189 -246 7
2 23 -9 35 -25 12 -17 25 -30 29 -30 5 0 13 17 18 38 6 21 17 46 24 56 14 19
15 18 48 -6 19 -14 41 -28 50 -31 11 -4 19 -23 24 -57 9 -65 -4 -82 -34 -44
-29 37 -44 21 -45 -46 -1 -43 3 -54 24 -71 17 -13 34 -18 53 -14 23 4 29 0 45
-33 22 -48 54 -54 79 -16 16 25 18 54 19 253 1 247 5 272 66 374 36 62 138
272 138 286 0 13 90 281 101 303 9 17 15 40 39 156 5 26 16 63 24 82 25 61 30
75 31 85 0 6 10 26 23 46 12 20 22 42 22 48 0 12 43 77 77 117 10 11 44 33 76
48 32 15 55 31 52 36 -4 6 6 7 22 4 18 -3 43 3 68 16 l39 20 -34 1 c-22 1 -28
3 -15 6 11 3 23 10 27 17 5 8 12 8 25 0 20 -12 103 -7 103 6 0 10 66 22 117
22 19 0 49 6 66 13 33 14 64 7 131 -27 32 -16 40 -18 47 -7 6 10 11 11 17 3 4
-6 44 -11 98 -12 57 -1 104 -7 128 -17 21 -9 70 -17 108 -18 53 -2 73 -6 82
-20 7 -9 18 -17 24 -17 5 0 22 -20 37 -45 14 -25 34 -51 45 -57 10 -6 16 -16
14 -22 -2 -6 9 -26 26 -44 16 -18 32 -43 34 -55 11 -50 17 -105 19 -157 1 -38
6 -54 15 -53 11 3 13 -2 16 -39 1 -7 8 -18 16 -24 11 -9 17 -8 25 3 10 13 14
11 24 -16 8 -18 21 -31 31 -31 10 0 25 -7 34 -15 8 -8 19 -15 24 -15 5 0 12
-9 15 -20 3 -11 16 -24 29 -29 35 -13 72 -101 42 -101 -8 0 -14 -6 -14 -14 0
-16 -6 -17 -273 -16 l-218 1 -30 -25 c-21 -18 -38 -24 -57 -21 -25 5 -30 0
-64 -73 -21 -43 -38 -91 -38 -107 0 -16 -7 -36 -15 -45 -25 -28 -19 -78 24
-203 23 -65 41 -124 41 -132 0 -8 13 -24 30 -36 16 -12 27 -26 24 -31 -7 -10
-3 -10 35 3 26 9 29 14 20 25 -18 22 -5 26 27 9 33 -17 70 -20 79 -5 3 6 0 10
-7 10 -7 0 -22 16 -32 35 -11 19 -23 35 -29 35 -5 0 -7 10 -4 22 4 14 0 26
-11 34 -10 8 -12 14 -5 14 6 0 14 -4 18 -10 3 -5 12 -7 21 -3 9 3 14 0 12 -8
-3 -14 47 -21 98 -13 27 4 31 8 27 32 -3 16 -1 22 4 16 9 -13 103 -35 115 -28
12 8 111 7 129 0 10 -4 20 -3 24 3 3 6 26 11 50 11 24 0 47 5 50 10 3 6 15 10
26 10 11 0 17 4 14 10 -12 20 -14 52 -4 77 7 20 6 30 -8 46 -16 18 -16 20 -1
14 28 -10 29 5 2 20 -15 7 -30 13 -36 13 -5 0 -14 5 -21 10 -7 6 -23 19 -37
30 l-25 19 50 2 c28 1 66 3 85 3 19 1 44 -4 55 -12 18 -12 15 -13 -27 -9 -27
2 -48 0 -48 -5 0 -4 18 -8 39 -8 40 0 61 -13 41 -25 -7 -4 -5 -13 7 -23 10
-10 19 -24 21 -32 2 -8 10 -19 18 -23 8 -4 14 -14 14 -21 0 -8 7 -17 16 -20 9
-3 14 -13 11 -20 -4 -9 5 -21 19 -31 14 -9 33 -33 41 -53 8 -20 28 -51 43 -68
57 -65 64 -105 51 -280 -10 -122 -10 -171 -1 -223 17 -91 16 -89 42 -93 48 -6
30 -97 -78 -395 -24 -68 -44 -132 -44 -143 0 -18 3 -17 43 10 23 16 62 54 86
84 24 31 51 56 60 56 29 1 99 38 115 62 20 31 31 78 18 78 -5 0 -12 -9 -15
-20 -3 -13 -14 -20 -29 -20 -13 0 -29 -5 -34 -10 -17 -17 -74 0 -74 21 0 11 5
19 10 19 6 0 10 -7 10 -15 0 -8 7 -15 15 -15 18 0 20 17 3 22 -7 3 -9 12 -5
22 4 9 10 15 15 12 4 -2 9 5 9 16 2 26 6 29 45 37 23 5 34 13 36 27 4 27 -19
45 -64 49 -54 5 -61 17 -42 68 14 39 18 42 49 39 31 -2 36 2 62 48 16 28 35
69 43 93 l14 42 -4 -55 c-6 -81 -52 -175 -81 -164 -8 3 -16 -4 -20 -17 -6 -17
-2 -27 16 -40 13 -10 29 -17 34 -16 15 5 39 60 74 172 43 134 40 130 97 132
97 3 163 51 219 161 58 114 59 190 3 402 -11 41 -34 104 -50 140 -56 122 -135
331 -157 415 -10 37 -9 39 6 20 l16 -20 -8 20 c-4 11 -15 43 -25 70 -29 81
-43 107 -51 94 -6 -10 -41 56 -127 241 -56 121 -170 304 -265 423 -127 159
-248 273 -356 334 -25 14 -94 55 -153 90 -136 81 -174 97 -316 138 -128 36
-219 48 -270 35z m553 -1770 c8 -6 18 -9 22 -7 5 3 17 -1 28 -9 19 -14 17 -15
-20 -10 -22 2 -85 5 -140 6 l-100 1 40 19 c44 22 144 22 170 0z m112 -26 c-3
-3 -12 -4 -19 -1 -8 3 -5 6 6 6 11 1 17 -2 13 -5z m-177 -49 c24 -13 21 -14
-42 -15 -38 0 -68 4 -68 9 0 22 75 26 110 6z m-152 -125 c2 -14 11 -33 19 -42
15 -17 14 -18 -3 -18 -20 0 -84 35 -84 47 0 13 35 42 50 40 8 -1 17 -13 18
-27z m62 -110 c0 -5 -4 -10 -10 -10 -5 0 -10 5 -10 10 0 6 5 10 10 10 6 0 10
-4 10 -10z"/>
<path d="M2939 3283 c-9 -2 -21 -15 -28 -29 -9 -20 -8 -26 4 -30 22 -9 45 3
39 20 -3 8 -1 17 5 21 12 7 15 26 4 24 -5 -1 -15 -3 -24 -6z"/>
<path d="M2825 3259 c-11 -16 -1 -19 13 -3 7 8 8 14 3 14 -5 0 -13 -5 -16 -11z"/>
<path d="M1630 2924 c-111 -20 -200 -58 -200 -84 0 -6 -4 -8 -10 -5 -6 3 -7
-1 -4 -10 7 -17 28 -14 82 15 32 18 77 16 66 -1 -3 -5 4 -9 15 -9 12 0 21 -5
21 -11 0 -6 7 -8 16 -5 36 14 266 -16 357 -45 89 -30 174 -37 188 -16 8 11 29
0 29 -14 0 -6 -5 -7 -12 -3 -7 4 -8 3 -4 -4 11 -18 37 -14 34 5 -2 11 8 22 25
31 32 15 35 32 7 39 -11 3 -20 9 -20 14 0 5 -7 9 -16 9 -8 0 -20 13 -25 29
-13 35 -50 51 -124 51 -28 0 -76 4 -106 10 -85 14 -248 17 -319 4z m565 -144
c3 -5 1 -10 -4 -10 -6 0 -11 5 -11 10 0 6 2 10 4 10 3 0 8 -4 11 -10z"/>
<path d="M1790 2713 c-91 -12 -151 -28 -188 -49 -23 -14 -40 -29 -37 -35 10
-15 27 -11 89 22 60 32 172 55 209 43 28 -9 6 -20 -60 -29 -64 -8 -145 -34
-200 -63 -42 -22 -63 -42 -44 -42 6 0 20 -11 33 -24 14 -14 40 -26 67 -30 24
-4 68 -15 98 -26 33 -11 67 -17 84 -13 19 3 36 0 47 -9 27 -22 199 -10 236 18
19 13 19 15 1 54 -17 38 -17 41 -1 59 16 18 16 20 -9 45 -36 36 -113 65 -189
72 -33 3 -72 6 -86 8 -14 1 -36 1 -50 -1z m216 -164 c-3 -32 -19 -49 -48 -49
-15 0 -14 4 3 40 24 49 50 54 45 9z m-256 9 c0 -7 12 -25 27 -40 32 -33 14
-38 -34 -8 -36 21 -39 30 -21 48 15 15 28 15 28 0z m357 -44 c-3 -3 -12 -4
-19 -1 -8 3 -5 6 6 6 11 1 17 -2 13 -5z"/>
<path d="M2070 2691 c0 -6 5 -13 10 -16 6 -3 10 1 10 9 0 9 -4 16 -10 16 -5 0
-10 -4 -10 -9z"/>
<path d="M2178 2448 c5 -5 16 -8 23 -6 8 3 3 7 -10 11 -17 4 -21 3 -13 -5z"/>
<path d="M2626 2139 c3 -6 1 -15 -6 -19 -20 -12 -2 -47 38 -77 20 -15 43 -34
51 -42 23 -28 1 30 -25 65 -13 17 -24 36 -24 42 0 7 -4 12 -10 12 -5 0 -10 7
-10 15 0 8 -5 15 -11 15 -5 0 -7 -5 -3 -11z"/>
<path d="M2128 1906 c-23 -12 -39 -66 -19 -66 5 0 22 -5 38 -11 27 -11 110
-19 125 -12 13 6 -73 91 -97 96 -14 2 -35 -1 -47 -7z"/>
<path d="M2530 1913 c-8 -3 -33 -22 -55 -42 -43 -39 -78 -56 -138 -66 -32 -5
-36 -8 -27 -24 11 -21 57 -31 114 -26 29 3 43 -1 53 -13 7 -9 13 -12 13 -6 0
7 15 15 34 18 20 4 41 16 50 31 9 14 26 25 38 25 l21 0 -21 -23 c-12 -13 -22
-31 -22 -41 0 -15 5 -17 31 -12 86 17 129 64 129 142 0 43 -19 54 -26 15 -4
-16 -15 -38 -25 -47 -17 -15 -19 -15 -25 0 -3 9 -12 16 -20 16 -8 0 -14 4 -14
8 0 5 -18 14 -40 21 -22 6 -40 16 -40 21 0 11 -7 11 -30 3z"/>
<path d="M2050 1819 c17 -14 26 -17 28 -9 5 14 -16 30 -38 30 -10 -1 -7 -7 10
-21z"/>
<path d="M2467 1684 c-9 -10 -9 -44 1 -44 4 0 14 5 22 10 13 8 13 11 -1 25 -8
8 -18 12 -22 9z"/>
<path d="M2798 1530 c17 -20 15 -41 -3 -34 -10 4 -15 0 -15 -11 0 -11 5 -15
15 -12 22 9 27 -8 7 -25 -32 -29 -59 -30 -115 -4 -30 13 -76 28 -102 32 -26 3
-59 13 -73 20 -26 13 -133 10 -161 -5 -7 -5 -46 -2 -85 5 -74 15 -146 7 -282
-32 -27 -8 -71 -16 -97 -18 -26 -2 -56 -11 -66 -20 -9 -9 -23 -16 -29 -16 -7
0 -12 -6 -12 -12 0 -7 -3 -24 -7 -37 -4 -17 -3 -22 6 -17 30 19 92 17 125 -3
42 -26 62 -26 76 -1 8 14 21 20 46 20 19 0 43 4 52 9 11 5 57 1 122 -11 61
-12 143 -19 195 -19 97 2 145 -5 145 -20 0 -5 -5 -9 -12 -9 -6 0 -22 -10 -35
-22 -13 -12 -23 -16 -23 -10 0 13 -58 5 -74 -9 -14 -12 -73 -11 -81 1 -9 15
-42 12 -49 -5 -3 -8 0 -15 7 -16 7 0 21 -3 32 -5 11 -3 37 -6 57 -7 20 -1 39
-5 43 -9 4 -4 18 -2 32 3 30 11 38 6 29 -18 -6 -14 -9 -15 -15 -4 -6 8 -11 9
-15 3 -11 -19 8 -20 78 -6 44 10 72 11 80 5 14 -12 138 10 160 28 9 7 23 11
31 7 9 -3 13 -2 10 4 -3 6 5 10 18 10 13 0 32 9 42 20 10 11 26 20 37 20 11 0
18 7 18 20 0 10 8 24 18 29 9 6 12 11 6 11 -19 0 -24 43 -8 68 12 18 13 26 3
38 -6 8 -17 14 -24 14 -7 0 -18 6 -25 14 -6 8 -18 12 -26 9 -8 -3 -27 5 -42
18 -15 13 -21 17 -14 9z m-338 -274 c0 -2 -7 -7 -16 -10 -8 -3 -12 -2 -9 4 6
10 25 14 25 6z m40 -32 c0 -8 -4 -12 -10 -9 -5 3 -10 10 -10 16 0 5 5 9 10 9
6 0 10 -7 10 -16z"/>
<path d="M1013 1480 c9 -6 17 -17 17 -24 0 -8 7 -16 15 -20 8 -3 15 -16 15
-29 0 -13 6 -29 12 -35 7 -7 13 -25 14 -41 2 -28 54 -109 80 -124 8 -4 14 -16
14 -25 0 -22 17 -48 26 -40 4 4 -16 69 -43 145 -28 76 -55 152 -59 168 -9 28
-13 30 -59 33 -39 2 -46 0 -32 -8z"/>
<path d="M2974 1399 c-3 -6 -1 -16 5 -22 8 -8 11 -5 11 11 0 24 -5 28 -16 11z"/>
<path d="M2205 1270 c3 -5 13 -10 21 -10 8 0 12 5 9 10 -3 6 -13 10 -21 10 -8
0 -12 -4 -9 -10z"/>
<path d="M2205 1180 c3 -5 1 -11 -5 -15 -18 -11 -11 -25 14 -25 13 0 29 -7 36
-15 6 -8 17 -13 23 -12 6 1 16 -9 24 -23 7 -14 13 -19 13 -12 0 19 27 14 43
-8 18 -26 50 -17 41 12 -3 12 1 27 11 38 13 14 14 23 6 38 -9 18 -22 21 -83
22 -40 0 -85 2 -101 4 -15 3 -25 0 -22 -4z"/>
<path d="M1265 1070 c3 -5 8 -10 11 -10 2 0 4 5 4 10 0 6 -5 10 -11 10 -5 0
-7 -4 -4 -10z"/>
<path d="M3082 1059 c-15 -15 -20 -15 -45 -2 -22 11 -32 12 -43 2 -16 -13 -9
-30 9 -23 8 3 17 -12 25 -41 15 -58 15 -65 -2 -65 -8 0 -16 -6 -19 -14 -6 -14
-53 -28 -60 -17 -2 3 -2 0 -1 -7 6 -23 -8 -42 -31 -42 -13 0 -25 -7 -29 -15
-8 -21 -23 -19 -49 6 l-22 21 22 -6 c18 -6 20 -4 16 14 -3 11 -10 20 -15 20
-12 0 -48 39 -48 52 0 4 -14 8 -32 8 -17 0 -28 -3 -25 -7 4 -3 1 -16 -6 -27
-8 -12 -16 -31 -20 -44 -5 -20 0 -26 29 -38 19 -8 32 -19 29 -23 -3 -5 1 -12
7 -15 10 -5 10 -7 1 -12 -7 -3 -13 -10 -13 -15 0 -6 4 -8 9 -5 5 3 14 -8 20
-26 14 -40 14 -38 -9 -38 -11 0 -23 -7 -26 -15 -4 -8 -13 -15 -21 -15 -13 0
-13 3 -3 15 10 12 10 15 -3 15 -13 0 -31 -33 -28 -52 1 -5 -3 -8 -9 -8 -5 0
-10 7 -10 15 0 22 -21 18 -27 -4 -3 -11 -14 -21 -24 -24 -15 -4 -24 4 -39 34
-21 40 -37 47 -71 29 -14 -8 -25 -6 -44 6 -14 9 -28 14 -32 10 -3 -3 -12 -1
-19 5 -14 11 -54 -8 -54 -25 0 -6 -12 -22 -26 -37 l-26 -27 -21 21 -21 21 -7
-24 c-4 -14 -7 -19 -8 -12 -1 10 -6 10 -21 2 -14 -7 -26 -7 -39 -1 -14 8 -22
7 -31 -4 -7 -9 -21 -13 -30 -10 -11 3 -20 -1 -24 -10 -3 -8 -1 -15 4 -15 6 0
10 -6 10 -14 0 -19 -137 -27 -152 -9 -6 7 -16 13 -23 13 -8 0 -27 8 -44 18
-28 15 -33 15 -41 2 -5 -8 -10 -10 -10 -4 0 7 -11 15 -25 18 -14 4 -25 13 -25
21 0 8 -9 15 -21 15 -26 0 -61 18 -77 42 -7 10 -18 18 -23 18 -13 0 -75 71
-71 83 1 4 -1 6 -6 3 -16 -10 -103 78 -117 119 -12 34 -17 40 -39 37 -20 -2
-26 2 -26 16 0 10 -10 24 -22 30 -29 14 -78 13 -78 -1 0 -6 -6 -2 -14 9 -8 10
-17 16 -21 13 -7 -8 18 -135 32 -164 5 -11 25 -51 44 -88 19 -38 41 -73 51
-78 10 -5 14 -16 11 -28 -3 -10 0 -22 6 -25 6 -4 11 -15 11 -25 0 -11 9 -21
21 -24 12 -3 18 -10 15 -15 -8 -13 28 -43 45 -39 8 2 11 2 7 0 -3 -2 9 -27 28
-56 19 -28 37 -60 40 -69 3 -10 12 -18 20 -18 8 0 14 -7 14 -15 0 -8 4 -15 8
-15 4 0 26 -16 47 -36 75 -67 83 -74 89 -74 4 0 2 9 -4 20 -9 17 -8 20 7 20
31 0 103 -25 123 -43 12 -10 37 -17 60 -17 24 0 62 -11 91 -26 28 -14 57 -23
64 -20 8 3 19 -2 25 -10 7 -8 18 -14 26 -14 17 0 37 -37 30 -56 -4 -10 0 -14
11 -12 13 2 19 -7 24 -37 4 -26 3 -43 -5 -47 -6 -4 29 -8 77 -8 49 0 86 4 83
9 -3 5 1 12 10 15 12 4 15 2 10 -9 -4 -13 7 -15 73 -15 43 0 100 7 127 15 37
11 50 12 57 2 5 -8 7 -5 5 7 -2 16 4 20 36 22 22 2 45 5 52 8 7 3 16 1 20 -5
4 -6 15 -4 29 5 18 12 31 13 50 6 19 -7 25 -6 25 4 0 8 -10 17 -22 21 -22 6
-22 7 7 17 16 6 36 18 44 25 11 11 16 12 22 2 4 -7 5 -18 2 -26 -6 -16 5 -17
40 0 15 6 27 18 27 25 0 14 46 17 54 3 3 -5 15 -7 26 -4 15 4 18 9 10 18 -14
17 59 48 78 33 6 -6 12 -8 12 -5 0 3 16 1 35 -3 20 -4 35 -4 35 1 0 5 -4 9 -9
9 -15 0 -20 39 -8 65 7 14 16 25 20 25 5 0 5 9 2 20 -5 15 -2 20 12 20 17 1
17 1 1 14 -19 14 -14 56 7 56 21 0 35 87 16 100 -7 5 -6 51 2 95 2 11 7 41 12
68 4 26 11 50 16 53 5 2 6 18 2 35 -4 19 0 36 9 47 16 17 19 34 19 86 0 16 5
36 11 43 6 7 8 17 4 21 -4 4 -16 -3 -26 -16 -11 -13 -22 -22 -25 -22 -9 1 -45
-46 -40 -52 2 -2 -9 -9 -25 -15 -27 -10 -30 -9 -30 8 0 11 -6 22 -14 25 -11 4
-13 12 -6 30 11 27 3 54 -18 70 -11 8 -12 15 -4 29 8 15 5 23 -14 38 -13 10
-28 16 -34 12 -5 -3 -18 -1 -27 4 -16 9 -16 10 5 11 12 0 22 6 22 13 0 18 -38
16 -58 -4z m-317 -199 c-3 -5 -12 -10 -18 -10 -7 0 -6 4 3 10 19 12 23 12 15
0z m-180 -240 c-3 -5 -11 -10 -16 -10 -6 0 -7 5 -4 10 3 6 11 10 16 10 6 0 7
-4 4 -10z m-105 -8 c0 -13 -12 -22 -22 -16 -10 6 -1 24 13 24 5 0 9 -4 9 -8z"/>
<path d="M1280 1040 c0 -5 5 -10 11 -10 5 0 7 5 4 10 -3 6 -8 10 -11 10 -2 0
-4 -4 -4 -10z"/>
<path d="M2350 1019 c0 -5 5 -7 10 -4 6 3 10 8 10 11 0 2 -4 4 -10 4 -5 0 -10
-5 -10 -11z"/>
<path d="M3703 1001 c-35 -3 -71 -13 -81 -21 -37 -30 -58 -38 -75 -28 -9 5
-17 5 -17 1 0 -4 -4 -1 -10 7 -5 8 -12 12 -15 8 -12 -12 -22 -276 -16 -423 6
-142 8 -153 35 -199 15 -27 42 -65 60 -85 62 -72 113 -136 125 -159 10 -20 9
-30 -7 -63 l-19 -39 241 1 c132 0 235 3 229 6 -7 2 -13 16 -13 29 0 14 -5 23
-12 21 -7 -1 -12 6 -12 16 1 9 -5 17 -13 17 -9 0 -13 6 -10 14 3 8 -2 16 -14
19 -18 5 -18 7 -4 41 9 20 11 36 7 36 -5 0 -7 11 -4 25 2 14 8 25 12 25 5 0
13 13 18 29 8 22 7 32 -4 43 -11 11 -12 21 -5 41 9 22 8 27 -4 27 -19 0 -19 8
1 27 11 11 12 19 5 26 -13 13 -14 30 -2 22 13 -8 19 25 9 53 -4 13 -4 22 2 22
6 0 8 11 4 25 -3 13 -8 37 -10 52 -11 84 -18 142 -18 171 -1 17 -4 32 -8 32
-4 0 -7 8 -7 18 -1 48 -7 92 -14 98 -4 4 -7 18 -7 30 0 26 -24 42 -55 38 -56
-8 -93 -13 -124 -18 -19 -3 -49 1 -68 9 -20 8 -36 14 -37 13 0 -1 -29 -4 -63
-7z m-146 -77 c-3 -3 -12 -4 -19 -1 -8 3 -5 6 6 6 11 1 17 -2 13 -5z"/>
<path d="M2317 783 c-12 -12 -7 -33 8 -33 17 0 19 9 7 28 -5 7 -11 9 -15 5z"/>
<path d="M2431 757 c-1 -12 -6 -16 -13 -11 -10 5 -10 4 -1 -6 16 -17 26 -8 20
17 -4 17 -5 17 -6 0z"/>
<path d="M2495 740 c-3 -5 -1 -10 4 -10 6 0 11 5 11 10 0 6 -2 10 -4 10 -3 0
-8 -4 -11 -10z"/>
<path d="M3260 229 c0 -5 5 -7 10 -4 6 3 10 8 10 11 0 2 -4 4 -10 4 -5 0 -10
-5 -10 -11z"/>
<path d="M1237 110 c-26 -16 -70 -48 -98 -70 l-51 -40 55 0 c48 0 57 3 62 21
4 12 25 42 48 66 22 24 38 46 35 48 -2 3 -26 -9 -51 -25z"/>
<path d="M3105 110 c3 -5 8 -10 11 -10 2 0 4 5 4 10 0 6 -5 10 -11 10 -5 0 -7
-4 -4 -10z"/>
<path d="M1906 84 c-4 -10 -13 -13 -28 -9 -14 3 -7 -4 16 -19 21 -13 43 -30
47 -38 12 -19 284 -26 275 -6 -3 7 -9 21 -12 31 -4 9 -11 17 -16 17 -5 0 -6
-4 -3 -10 3 -5 -4 -9 -17 -9 -28 1 -97 -9 -108 -16 -4 -3 -10 2 -14 10 -3 8
-17 15 -30 15 -15 0 -30 8 -36 20 -8 15 -17 19 -31 15 -11 -4 -19 -2 -19 4 0
17 -17 13 -24 -5z"/>
<path d="M3270 63 c0 -19 21 -27 31 -12 13 21 11 25 -11 25 -11 0 -20 -6 -20
-13z"/>
</g>
</svg>
